<?xml version="1.0" standalone="no"?>
<!DOCTYPE svg PUBLIC "-//W3C//DTD SVG 20010904//EN"
 "http://www.w3.org/TR/2001/REC-SVG-20010904/DTD/svg10.dtd">
<svg version="1.0" xmlns="http://www.w3.org/2000/svg"
 width="166.000000pt" height="166.000000pt" viewBox="0 0 166.000000 166.000000"
 preserveAspectRatio="xMidYMid meet">
<metadata>
Created by potrace 1.14, written by Peter Selinger 2001-2017
</metadata>
<g transform="translate(0.000000,166.000000) scale(0.100000,-0.100000)"
fill="#000000" stroke="none">
<path d="M782 1649 c-42 -9 -135 -72 -159 -107 -44 -67 -75 -152 -88 -242 -4
-25 -12 -48 -18 -52 -7 -4 -8 -8 -3 -8 4 0 -6 -16 -23 -35 -17 -20 -32 -46
-32 -58 -1 -12 -3 -51 -4 -87 -1 -36 -3 -75 -4 -87 0 -13 -10 -24 -23 -29 -57
-18 -99 -68 -154 -182 l-54 -114 0 -324 0 -324 605 0 605 0 -16 26 c-27 40
-25 92 3 136 25 37 25 40 20 195 -5 182 -24 256 -97 390 -54 99 -174 269 -204
289 -33 21 -72 118 -91 221 -32 185 -38 210 -66 268 -22 47 -38 67 -76 90 -59
37 -79 43 -121 34z"/>
</g>
</svg>
